<?xml version="1.0" encoding="utf-8"?>
<!-- Generator: Adobe Illustrator 21.0.2, SVG Export Plug-In . SVG Version: 6.00 Build 0)  -->
<svg version="1.1" id="Layer_1" xmlns="http://www.w3.org/2000/svg" xmlns:xlink="http://www.w3.org/1999/xlink" x="0px" y="0px"
	 viewBox="0 0 1000 1000" style="enable-background:new 0 0 1000 1000;" xml:space="preserve">
<style type="text/css">
	.st0{opacity:0.18;}
	.st1{fill:#FFFFFF;}
	.st2{fill:#FF0000;}
	.st3{fill:#F9F9F9;}
	.st4{fill:#9F9F9F;}
	.st5{opacity:0.56;}
	.st6{fill:#FCFCFF;}
	.st7{fill:#FFCC7A;}
</style>
<g class="st0">
	<path d="M835.2,499.2l-43.2,0.6l-2-2l-4.2-66V423l16.1-0.9l-50.4-93.9l-26.7,1.4l-11,27.2l-3.9-28.6l-81.5,11.2l0.2,1.3l-57.7,4.5
		l0.6,7.9c-4.2-1.2-8.6-1.8-13.1-1.8c-1.7,0-3.5,0.1-5.2,0.3c-12.5,1.3-23.8,7.4-31.8,17.2l-1.4-0.6l-13.6-6.4
		c-6.5-3-13.6-4.6-20.7-4.6c-5.4,0-10.8,0.9-15.9,2.7c-10.9,3.8-19.6,11.3-25.2,20.5c-4.7,6.5-21,24-53.5,7.3c0,0,0,0,0,0
		c-25-14.6-54.1-22.8-84.7-22.8c-10.3,0-20.6,1-30.8,2.8C184,384.7,123.3,472.9,140.2,564.4C155,644.5,224.7,702.7,306,702.7
		c10.3,0,20.6-1,30.8-2.8c30.8-5.7,58-19.4,80.1-38.6c0,0,0,0,0,0s0,0,0-0.1c2.6-2.2,5.1-4.6,7.5-6.9c9.4-7.5,27.8-18.8,56.6-22.9
		c15.1-2.1,43.7-7.9,64-10.5l18.2-1.1l0,0c15.5,1.2,56.4-1.8,56.4-1.8s163.7-20.1,177.1-22.6l21.2-2.4c4.5-0.7,8.7-2.8,12-6.2
		c3-3,5-6.8,5.7-10.9L835.2,499.2z"/>
</g>
<g>
	<path class="st1" d="M826.3,490.3l-43.2,0.6l-2-2l-4.2-66v-8.7l16.1-0.9l-50.4-93.9l-26.7,1.4l-11,27.2l-3.9-28.6l-81.5,11.2
		l0.2,1.3l-57.7,4.5l0.6,7.9c-4.2-1.2-8.6-1.8-13.1-1.8c-1.7,0-3.5,0.1-5.2,0.3c-12.5,1.3-23.8,7.4-31.8,17.2l-1.4-0.6l-13.6-6.4
		c-6.5-3-13.6-4.6-20.7-4.6c-5.4,0-10.8,0.9-15.9,2.7c-10.9,3.8-19.6,11.3-25.2,20.5c-4.7,6.5-21,24-53.5,7.3c0,0,0,0,0,0
		c-25-14.6-54.1-22.8-84.7-22.8c-10.3,0-20.6,1-30.8,2.8C175.2,375.8,114.4,464,131.3,555.6c14.8,80.1,84.5,138.2,165.9,138.2
		c10.3,0,20.6-1,30.8-2.8c30.8-5.7,58-19.4,80.1-38.6c0,0,0,0,0,0s0,0,0-0.1c2.6-2.2,5.1-4.6,7.5-6.9c9.4-7.5,27.8-18.8,56.6-22.9
		c15.1-2.1,43.7-7.9,64-10.5l18.2-1.1l0,0c15.5,1.2,56.4-1.8,56.4-1.8s163.7-20.1,177.1-22.6l21.2-2.4c4.5-0.7,8.7-2.8,12-6.2
		c3-3,5-6.8,5.7-10.9L826.3,490.3z"/>
</g>
<g>
	<ellipse transform="matrix(0.9834 -0.1814 0.1814 0.9834 -90.2794 62.6377)" cx="297.3" cy="524.9" rx="154" ry="154"/>
</g>
<g class="st0">
	<path d="M593.2,323.2c-12.4,1-21.9-0.8-29.4-17.6c-0.7-1.6-3.9-1-3.8,0.9c0.4,7.4,0.5,13.8-3.5,19.8c-1.9,2.9-4,4.9-6.8,7
		c-2.8,2-4.7,2.2-7.7,3.8c-1.6,0.8-2.1,2.6-1.1,4.1c1.5,2.3,5.4,1.3,8.4,1.6c3.3,0.4,7.9,0.6,10.9,2c5.8,2.7,10.3,8.1,12.8,14.1
		c0.9,2.2,4.8,1.2,4.5-1.2c-1.2-12.4,5.5-24.1,17-29C597.3,327.5,596.1,323,593.2,323.2z"/>
</g>
<g>
	<path class="st1" d="M425.5,501.3C438.6,572.1,391.8,640,321,653.1c-70.8,13.1-138.8-33.7-151.8-104.5"/>
</g>
<g>
	<path class="st2" d="M425.5,501.3c-13.1-70.8-81-117.6-151.8-104.5c-70.8,13.1-117.6,81-104.5,151.8"/>
</g>
<g>
	<ellipse transform="matrix(0.9834 -0.1814 0.1814 0.9834 -90.2794 62.6377)" cx="297.3" cy="524.9" rx="61.7" ry="61.7"/>
</g>
<g>
	<path d="M160.2,550.2c0.9-1.3,274.3-50.6,274.3-50.6"/>
	<path d="M163.5,560.8c0.6-0.2,3.6-1.1,5.8-4.3L151,543.9c2.7-4,3.7-4.2,19.1-7.2c7.2-1.4,17.7-3.4,31.3-5.9
		c22.8-4.3,54.5-10.1,94.3-17.3c67.7-12.3,136.2-24.7,136.8-24.8l3.9,21.9C331.5,529.5,172.2,558.5,163.5,560.8z"/>
</g>
<g>
	
		<ellipse transform="matrix(0.9834 -0.1814 0.1814 0.9834 -90.2794 62.6377)" class="st3" cx="297.3" cy="524.9" rx="37.5" ry="37.5"/>
</g>
<g>
	<path class="st4" d="M297.3,554.6c-5.9,0-11.6-1.8-16.6-5.2c-6.5-4.5-10.8-11.2-12.2-18.9l0,0c-2.9-15.9,7.6-31.3,23.6-34.2
		c15.9-2.9,31.3,7.6,34.2,23.6c1.4,7.7-0.2,15.5-4.7,22c-4.5,6.5-11.2,10.8-18.9,12.2C300.9,554.4,299.1,554.6,297.3,554.6z
		 M297.4,500.3c-1.5,0-3,0.1-4.5,0.4c-13.5,2.5-22.5,15.5-20,29l0,0c1.2,6.6,4.9,12.2,10.4,16c5.5,3.8,12.1,5.2,18.7,4
		c6.5-1.2,12.2-4.9,16-10.4c3.8-5.5,5.2-12.1,4-18.7C319.7,508.7,309.2,500.3,297.4,500.3z"/>
</g>
<g>
	<path d="M507.6,383.1l0.8,2.4c6.1,17.4-3,36.5-20.4,42.6c-17.4,6.1-36.4-3-42.5-20.4c-6.1-17.4,2.9-36.4,20.3-42.6
		c8.7-3,17.7-2.3,25.4,1.3l-7.6,15.7c-3.6-1.6-7.7-2-12-0.5c-7.9,2.8-12.6,11.5-9.6,20.2s12.4,12.4,20.1,9.7c5-1.7,8.7-5.8,10-10.5
		l-12.2,4.3l-3.9-11.1L507.6,383.1z"/>
</g>
<g>
	<path d="M545.9,357.6c18.3-2,34.8,11.4,36.8,29.7c2,18.3-11.3,34.7-29.6,36.7s-34.7-11.2-36.7-29.6
		C514.4,376.1,527.6,359.5,545.9,357.6z M547.7,374.9c-8.7,0.9-15,8.8-14.1,17.5c0.9,8.7,8.8,15.1,17.5,14.2
		c8.8-0.9,15.1-8.9,14.1-17.6C564.4,380.3,556.5,374,547.7,374.9z"/>
</g>
<g>
	<path d="M577.8,350.1l52.5-4.1l1.4,17.4l-17.7,1.4l3.9,49.3l-17.5,1.4l-3.9-49.3l-17.3,1.4L577.8,350.1z"/>
</g>
<g>
	<path d="M636.1,343.3l52.1-7.2l2.4,17.3l-17.6,2.4l6.7,49l-17.4,2.4l-6.7-49l-17.2,2.4L636.1,343.3z"/>
</g>
<g>
	<path d="M698.4,403.4l27.6-68.3l7.9-0.4l34.9,65l-17.5,0.9l-4.5-8.5l-27.3,1.4l-3.5,8.9L698.4,403.4z M725.6,378.5l13.6-0.7
		l-7.5-14.3L725.6,378.5z"/>
</g>
<g>
	<path d="M501.1,468.5c-3.3-2.1-7.4-2.9-11.9-2c-8.9,1.9-14,9.7-12.1,18.5c1.9,8.9,9.7,14,18.5,12.1c4.4-0.9,8-3.3,10.1-6.7
		l14.7,9.5c-4.7,7.2-12.1,12.6-21.2,14.5c-18,3.8-35.7-7.8-39.5-25.9c-3.8-18,7.8-35.7,25.9-39.5c9-1.9,17.8,0,25,4.7L501.1,468.5z"
		/>
</g>
<g>
	<path d="M519.2,508.3l29.9-67.3l7.9-0.1l32.7,66.2l-17.5,0.3l-4.3-8.6l-27.3,0.5l-3.8,8.8L519.2,508.3z M547.1,484.3l13.6-0.3
		l-7-14.6L547.1,484.3z"/>
</g>
<g>
	<path d="M581.6,438.9l52.1-7.4l2.4,17.3l-17.5,2.5l6.9,48.9l-17.4,2.5l-6.9-48.9l-17.2,2.4L581.6,438.9z"/>
</g>
<g>
	<path d="M685.3,447c-3.3-2-7.5-2.6-11.9-1.6c-8.8,2.2-13.6,10.1-11.5,19c2.2,8.8,10.1,13.6,19,11.5c4.4-1.1,7.8-3.6,9.8-7l15,9
		c-4.4,7.3-11.6,13-20.6,15.3c-17.9,4.4-36-6.5-40.4-24.4s6.5-36,24.4-40.4c8.9-2.2,17.8-0.6,25.1,3.8L685.3,447z"/>
</g>
<g>
	<path d="M723.2,424.2l1.5,23.7l21.1-1.4l-1.5-23.7l17.5-1.1l4.3,66.6l-17.5,1.1L747,464l-21.1,1.4l1.6,25.4l-17.5,1.1l-4.3-66.6
		L723.2,424.2z"/>
</g>
<g>
	<path d="M469,539.6l41-6.4l2.2,14.3l-23.7,3.7l1.7,10.7l20.9-3.3l2.3,14.6l-20.9,3.3l1.9,12.1l23.7-3.7l2.2,14.2l-41,6.4L469,539.6
		z"/>
</g>
<g>
	<path d="M561.3,553.5l25.6-26.4l7.9-0.5l4.1,66.7l-17.6,1.1l-2.1-34.2l-16.4,17l-18.5-14.7l2.1,34.1l-17.6,1.1l-4.1-66.7l7.9-0.5
		L561.3,553.5z"/>
</g>
<g>
	<path d="M631.7,591.2l21.2-70.6l7.8-1.1l40.7,61.6l-17.4,2.5l-5.3-8l-27.1,3.9l-2.7,9.2L631.7,591.2z M656.4,563.8l13.5-2
		l-8.8-13.6L656.4,563.8z"/>
</g>
<g>
	<path d="M690.6,517.6l17.2-3.5l9.8,48.2l23.6-4.8l3.5,17.3l-40.8,8.3L690.6,517.6z"/>
</g>
<g>
	<path d="M744.8,509.4l17.5-1.8l5,48.9l23.9-2.4l1.8,17.5l-41.4,4.2L744.8,509.4z"/>
</g>
<g>
	<path d="M798.1,505.5l13.6-0.2l0.6,47.1l-13.6,0.2L798.1,505.5z M805.5,556.1c3.8,0,6.8,3,6.9,6.8c0,3.8-2.9,6.8-6.7,6.9
		c-3.8,0-6.8-2.9-6.9-6.7S801.8,556.1,805.5,556.1z"/>
</g>
<g class="st5">
	<path class="st6" d="M222.9,443.7c1-0.6,2.1-1.1,2.9-1.7c0.7-0.6,1.3-1.2,2-1.8c1.4-1.2,2.8-2.3,4.2-3.4c1.4-1.1,3-2.2,4.5-3.3
		c0.7-0.6,1.5-1.1,2.3-1.6c0.3-0.2,0.6-0.4,0.9-0.6c-1.4,0.9,0,0,0.4-0.2c3.2-2,6.6-3.9,10.2-5.6c0.8-0.4,1.8-1,2.7-1.2
		c-1.5,0.3-0.5,0.2,0.1,0c0.5-0.2,0.9-0.4,1.4-0.6c1.9-0.7,3.8-1.4,5.7-2c1.9-0.6,3.9-1.2,5.9-1.7c1-0.3,2-0.6,3-0.8
		c-0.2,0-1.8,0.4-0.3,0.1c0.6-0.1,1.2-0.3,1.8-0.4c4.5-0.9,9-1.5,13.5-1.9c1.2-0.1,2.3-0.2,3.5-0.3c0.5,0,0.9-0.1,1.4-0.1
		c2.3-0.2-1.8,0,0.5,0c2.3-0.1,4.6-0.1,6.9-0.1c4.6,0.1,9.2,0.4,13.7,1c0.6,0.1,1.1,0.2,1.7,0.2c1.4,0.2-2-0.3,0.2,0
		c1.1,0.2,2.2,0.4,3.3,0.6c2.7,0.5,5.5,0.9,8.2,1.2c4.9,0.5,13.7,1,15.6-3.5c1.8-4.1-5.1-7.3-9.3-8.8c-4.4-1.7-9.6-2.3-14.6-2.8
		c-18.8-2.2-38.8-0.1-56.4,6.1c-9.6,3.4-18.3,7.9-26.1,13.2c-3.7,2.6-7,5.3-9.9,8.4c-1.3,1.4-2.4,2.8-3.5,4.2
		c-0.6,0.8-1.1,1.6-1.7,2.4c-0.7,1.1-0.7,2.2-1,3.4C216.4,444.4,220.7,445.1,222.9,443.7L222.9,443.7z"/>
</g>
<g>
	<path class="st7" d="M587.4,317.4c-12.4,1-21.9-0.8-29.4-17.6c-0.7-1.6-3.9-1-3.8,0.9c0.4,7.4,0.5,13.8-3.5,19.8
		c-1.9,2.9-4,4.9-6.8,7c-2.8,2-4.7,2.2-7.7,3.8c-1.6,0.8-2.1,2.6-1.1,4.1c1.5,2.3,5.4,1.3,8.4,1.6c3.3,0.4,7.9,0.6,10.9,2
		c5.8,2.7,10.3,8.1,12.8,14.1c0.9,2.2,4.8,1.2,4.5-1.2c-1.2-12.4,5.5-24.1,17-29C591.5,321.7,590.2,317.1,587.4,317.4z"/>
</g>
<path class="st0" d="M873.2,574.6c-16.7,1.3-29.4-1.1-39.5-23.6c-0.9-2.1-5.2-1.3-5.1,1.2c0.5,9.9,0.6,18.5-4.7,26.5
	c-2.6,3.9-5.4,6.6-9.1,9.4c-3.7,2.7-6.3,3-10.3,5.1c-2.1,1.1-2.8,3.4-1.5,5.4c2.1,3,7.3,1.7,11.3,2.2c4.4,0.5,10.7,0.9,14.6,2.7
	c7.8,3.6,13.8,10.8,17.2,18.9c1.2,2.9,6.4,1.5,6.1-1.6c-1.6-16.7,7.4-32.3,22.8-39C878.6,580.4,876.9,574.3,873.2,574.6z"/>
<g>
	<path class="st7" d="M865.3,566.8c-16.7,1.3-29.4-1.1-39.5-23.6c-0.9-2.1-5.2-1.3-5.1,1.2c0.5,9.9,0.6,18.5-4.7,26.5
		c-2.6,3.9-5.4,6.6-9.1,9.4c-3.7,2.7-6.3,3-10.3,5.1c-2.1,1.1-2.8,3.4-1.5,5.4c2.1,3,7.3,1.7,11.3,2.2c4.4,0.5,10.7,0.9,14.6,2.7
		c7.8,3.6,13.8,10.8,17.2,18.9c1.2,2.9,6.4,1.5,6.1-1.6c-1.6-16.7,7.4-32.3,22.8-39C870.8,572.6,869.1,566.5,865.3,566.8z"/>
</g>
<g>
	<g>
		<g>
			<ellipse transform="matrix(0.3061 -0.952 0.952 0.3061 9.3052 794.2894)" cx="549.5" cy="390.8" rx="33.4" ry="33.4"/>
		</g>
	</g>
	<g>
		<g>
			<path class="st1" d="M576.4,399.4c-4.8,14.9-20.7,23-35.5,18.2s-23-20.7-18.2-35.5"/>
		</g>
	</g>
	<g>
		<g>
			<path class="st2" d="M576.4,399.4c4.8-14.9-3.4-30.8-18.2-35.5s-30.8,3.4-35.5,18.2"/>
		</g>
	</g>
	<g>
		<g>
			<ellipse transform="matrix(0.3061 -0.952 0.952 0.3061 9.3052 794.2894)" cx="549.5" cy="390.8" rx="13.4" ry="13.4"/>
		</g>
	</g>
	<g>
		<g>
			<path d="M520.7,381.5c0.3-0.2,57.6,18.5,57.6,18.5"/>
		</g>
		<g>
			<path d="M520.3,383.9c0.1,0,0.8,0.2,1.6-0.2l-2.2-4.3c0.9-0.5,1.1-0.4,4.4,0.6c1.5,0.5,3.7,1.2,6.6,2.1
				c4.8,1.5,11.4,3.7,19.8,6.4c14.2,4.6,28.5,9.3,28.7,9.3l-1.5,4.6C555.6,395.1,522.2,384.3,520.3,383.9z"/>
		</g>
	</g>
	<g>
		<g>
			<ellipse transform="matrix(0.3061 -0.952 0.952 0.3061 9.3052 794.2894)" class="st3" cx="549.5" cy="390.8" rx="8.1" ry="8.1"/>
		</g>
	</g>
	<g>
		<g>
			<path class="st4" d="M546.5,396.4c-2.7-1.4-4-4.6-3-7.6l0,0c1.1-3.3,4.7-5.2,8-4.1c1.6,0.5,2.9,1.6,3.7,3.2
				c0.8,1.5,0.9,3.2,0.4,4.9c-0.5,1.6-1.6,2.9-3.2,3.7c-1.5,0.8-3.2,0.9-4.9,0.4C547.2,396.8,546.8,396.6,546.5,396.4z M544.3,389.2
				c-0.9,2.8,0.7,5.9,3.5,6.8c1.4,0.4,2.8,0.3,4.1-0.3c1.3-0.7,2.2-1.8,2.7-3.2c0.4-1.4,0.3-2.8-0.3-4.1c-0.7-1.3-1.8-2.2-3.2-2.7
				C548.3,384.8,545.2,386.3,544.3,389.2L544.3,389.2z"/>
		</g>
	</g>
	<g class="st5">
		<g>
			<path class="st6" d="M543.6,367.6c0.2,0,0.5,0,0.7,0c0.2,0,0.4-0.1,0.6-0.1c0.4-0.1,0.8-0.1,1.2-0.2c0.4-0.1,0.8-0.1,1.2-0.2
				c0.2,0,0.4-0.1,0.6-0.1c0.1,0,0.2,0,0.2,0c-0.4,0,0,0,0.1,0c0.8-0.1,1.7-0.1,2.5,0c0.2,0,0.5,0,0.6,0c-0.3-0.1-0.1,0,0,0
				c0.1,0,0.2,0,0.3,0c0.4,0.1,0.9,0.1,1.3,0.2c0.4,0.1,0.9,0.2,1.3,0.3c0.2,0.1,0.4,0.1,0.7,0.2c-0.1,0-0.4-0.1-0.1,0
				c0.1,0,0.3,0.1,0.4,0.1c0.9,0.3,1.9,0.6,2.8,1c0.2,0.1,0.5,0.2,0.7,0.3c0.1,0,0.2,0.1,0.3,0.1c0.5,0.2-0.3-0.2,0.1,0.1
				c0.4,0.2,0.9,0.5,1.3,0.7c0.9,0.5,1.7,1,2.5,1.6c0.1,0.1,0.2,0.1,0.3,0.2c0.2,0.2-0.3-0.3,0,0c0.2,0.2,0.4,0.3,0.6,0.5
				c0.5,0.4,1,0.7,1.5,1.1c0.9,0.6,2.5,1.6,3.3,0.9c0.8-0.6-0.2-1.9-0.9-2.6c-0.7-0.8-1.6-1.4-2.5-2c-3.4-2.3-7.4-4-11.4-4.6
				c-2.2-0.3-4.3-0.4-6.3-0.2c-1,0.1-1.9,0.3-2.7,0.6c-0.4,0.1-0.8,0.3-1.1,0.4c-0.2,0.1-0.4,0.2-0.6,0.3c-0.2,0.1-0.4,0.3-0.5,0.5
				C542.3,367.1,543.1,367.7,543.6,367.6L543.6,367.6z"/>
		</g>
	</g>
</g>
</svg>
